<svg width="201" height="442" viewBox="0 0 201 442" fill="none" xmlns="http://www.w3.org/2000/svg">
<rect x="25" width="19" height="442" fill="#160E37"/>
<path d="M44 21.2H185V116.4H160.8V52.2H126.4V112H102.2V52.2H44V21.2ZM44 118.516L185 183.316V208.316L44 273.116V241.916L74.6 228.716V162.916L44 149.916V118.516ZM152 195.516L98.8 173.316V218.516L152 195.916V195.516ZM-2.74181e-06 395.381L34 374.381C39.2 370.915 41.8 365.181 41.8 357.181C41.9333 343.315 45 331.181 51 320.781C57 310.381 65.4667 302.248 76.4 296.381C87.3333 290.648 100.067 287.781 114.6 287.781C129.267 287.781 142 290.648 152.8 296.381C163.733 302.248 172.2 310.381 178.2 320.781C184.2 331.181 187.2 343.381 187.2 357.381C187.2 371.381 184.2 383.581 178.2 393.981C172.2 404.515 163.733 412.648 152.8 418.381C142 424.248 129.333 427.181 114.8 427.181C99.4667 427.181 86.1333 423.981 74.8 417.581C63.6 411.315 55.2 402.581 49.6 391.381C47.7333 397.515 43.4 402.581 36.6 406.581L12.2 421.781L-2.74181e-06 395.381ZM68.2 357.381C68.2 369.115 72.2667 378.248 80.4 384.781C88.6667 391.448 100.067 394.781 114.6 394.781C129.267 394.781 140.6 391.515 148.6 384.981C156.733 378.448 160.8 369.248 160.8 357.381C160.8 345.781 156.733 336.648 148.6 329.981C140.6 323.448 129.267 320.181 114.6 320.181C100.067 320.181 88.6667 323.448 80.4 329.981C72.2667 336.648 68.2 345.781 68.2 357.381Z" fill="#160E37"/>
</svg>
