<svg width="526" height="526" viewBox="0 0 526 526" fill="none" xmlns="http://www.w3.org/2000/svg">
<path d="M124.111 401.889L13 513M290.778 13C231.841 13 175.318 36.4126 133.643 78.0874C91.9681 119.762 68.5555 176.285 68.5555 235.222C68.5555 294.159 91.9681 350.682 133.643 392.357C175.318 434.032 231.841 457.444 290.778 457.444C349.715 457.444 406.238 434.032 447.913 392.357C489.587 350.682 513 294.159 513 235.222C513 176.285 489.587 119.762 447.913 78.0874C406.238 36.4126 349.715 13 290.778 13Z" stroke="#160E37" stroke-width="25" stroke-linecap="round" stroke-linejoin="round"/>
<path d="M317.667 101.667C328.275 101.667 338.45 105.881 345.951 113.382C353.452 120.884 357.667 131.058 357.667 141.667H397.667C404.739 141.667 411.522 144.476 416.523 149.477C421.524 154.478 424.333 161.261 424.333 168.333V315C424.333 322.072 421.524 328.855 416.523 333.856C411.522 338.857 404.739 341.666 397.667 341.666H184.333C177.261 341.666 170.478 338.857 165.477 333.856C160.476 328.855 157.667 322.072 157.667 315V168.333C157.667 161.261 160.476 154.478 165.477 149.477C170.478 144.476 177.261 141.667 184.333 141.667H224.333C224.333 131.058 228.548 120.884 236.049 113.382C243.551 105.881 253.725 101.667 264.333 101.667H317.667ZM384.333 195H197.667C194.268 195.004 191 196.305 188.528 198.638C186.057 200.971 184.57 204.159 184.371 207.552C184.172 210.944 185.276 214.285 187.457 216.891C189.638 219.497 192.732 221.172 196.107 221.573L197.667 221.666H277.667V235C277.671 238.398 278.972 241.667 281.305 244.138C283.638 246.609 286.826 248.096 290.219 248.295C293.611 248.495 296.952 247.391 299.558 245.21C302.164 243.028 303.839 239.934 304.24 236.56L304.333 235V221.666H384.333C387.732 221.663 391 220.361 393.472 218.029C395.943 215.696 397.43 212.507 397.629 209.115C397.828 205.722 396.724 202.381 394.543 199.775C392.362 197.169 389.268 195.495 385.893 195.093L384.333 195ZM317.667 128.333H264.333C261.068 128.334 257.916 129.533 255.475 131.703C253.035 133.873 251.476 136.863 251.093 140.106L251 141.667H331C331 138.401 329.801 135.249 327.631 132.808C325.46 130.368 322.47 128.809 319.227 128.427L317.667 128.333Z" fill="#160E37"/>
</svg>
