<svg width="152" height="67" viewBox="0 0 152 67" fill="none" xmlns="http://www.w3.org/2000/svg">
<path d="M32.0555 47.7687C26.1849 47.7687 21.4259 42.8648 21.4259 36.8154C21.4259 30.766 26.1849 25.8621 32.0555 25.8621C37.926 25.8621 42.6851 30.766 42.6851 36.8154C42.6851 42.8648 37.926 47.7687 32.0555 47.7687Z" stroke="#2B00C6" stroke-width="2.35"/>
<path d="M32.0558 31.3389C33.4654 31.3389 34.8172 31.9159 35.8139 32.9429C36.8107 33.97 37.3706 35.363 37.3706 36.8155M16.1115 53.2455L21.4263 47.7689L16.1115 53.2455Z" fill="#FA7F08"/>
<path d="M32.0558 31.3389C33.4654 31.3389 34.8172 31.9159 35.8139 32.9429C36.8107 33.97 37.3706 35.363 37.3706 36.8155M16.1115 53.2455L21.4263 47.7689" stroke="#2B00C6" stroke-width="2.35" stroke-linecap="round"/>
<mask id="path-4-outside-1_424_414" maskUnits="userSpaceOnUse" x="0" y="16.6694" width="151" height="30" fill="black">
<rect fill="white" y="16.6694" width="151" height="30"/>
<path d="M6.6 45.0694C5.53333 45.0694 4.53333 44.9761 3.6 44.7894C2.69333 44.6294 1.89333 44.4161 1.2 44.1494V41.3494C1.84 41.6161 2.61333 41.8428 3.52 42.0294C4.42667 42.2161 5.32 42.3094 6.2 42.3094C8.09333 42.3094 9.4 41.9094 10.12 41.1094C10.84 40.3094 11.2 39.0561 11.2 37.3494V18.9094H14.48V37.5894C14.48 39.9361 13.8267 41.7761 12.52 43.1094C11.24 44.4161 9.26667 45.0694 6.6 45.0694ZM57.1666 45.0694C55.7532 45.0694 54.5132 44.8828 53.4466 44.5094C52.4066 44.1094 51.4466 43.4961 50.5666 42.6694L50.3266 44.6694H47.5266V17.7094H50.8066V27.1094C52.5399 25.9094 54.6466 25.3094 57.1266 25.3094C59.8199 25.3094 61.9266 26.0828 63.4466 27.6294C64.9666 29.1494 65.7266 31.6161 65.7266 35.0294C65.7266 38.4694 64.9666 41.0028 63.4466 42.6294C61.9266 44.2561 59.8332 45.0694 57.1666 45.0694ZM56.3266 42.4294C58.5399 42.4294 60.1132 41.8161 61.0466 40.5894C61.9799 39.3628 62.4466 37.5094 62.4466 35.0294C62.4466 32.4428 61.9399 30.6161 60.9266 29.5494C59.9399 28.4828 58.3799 27.9494 56.2466 27.9494C55.0999 27.9494 54.0732 28.1228 53.1666 28.4694C52.2599 28.7894 51.4732 29.2428 50.8066 29.8294V40.1494C51.5266 40.9228 52.3532 41.4961 53.2866 41.8694C54.2199 42.2428 55.2332 42.4294 56.3266 42.4294ZM69.5344 44.6694V18.9094H77.0544V38.9094H88.6544V44.6694H69.5344ZM90.5809 23.1894V17.7494H98.7009V23.1894H90.5809ZM91.1809 44.6694V31.1894H88.4209L89.0609 25.7094H98.7009V44.6694H91.1809ZM102.308 44.6694V25.7094H109.348L109.548 27.1494C110.268 26.6694 111.214 26.2428 112.388 25.8694C113.588 25.4961 114.868 25.3094 116.228 25.3094C118.601 25.3094 120.334 25.8961 121.428 27.0694C122.521 28.2428 123.068 30.0561 123.068 32.5094V44.6694H115.548V33.2694C115.548 32.4161 115.361 31.8028 114.988 31.4294C114.614 31.0561 113.961 30.8694 113.028 30.8694C112.468 30.8694 111.881 31.0028 111.268 31.2694C110.681 31.5361 110.201 31.8561 109.828 32.2294V44.6694H102.308ZM126.448 44.6694V17.7094H133.968V31.0294L139.248 25.7094H147.768L140.208 33.7094L148.208 44.6694H140.208L135.528 37.6294L133.968 39.1894V44.6694H126.448Z"/>
</mask>
<path d="M6.6 45.0694C5.53333 45.0694 4.53333 44.9761 3.6 44.7894C2.69333 44.6294 1.89333 44.4161 1.2 44.1494V41.3494C1.84 41.6161 2.61333 41.8428 3.52 42.0294C4.42667 42.2161 5.32 42.3094 6.2 42.3094C8.09333 42.3094 9.4 41.9094 10.12 41.1094C10.84 40.3094 11.2 39.0561 11.2 37.3494V18.9094H14.48V37.5894C14.48 39.9361 13.8267 41.7761 12.52 43.1094C11.24 44.4161 9.26667 45.0694 6.6 45.0694ZM57.1666 45.0694C55.7532 45.0694 54.5132 44.8828 53.4466 44.5094C52.4066 44.1094 51.4466 43.4961 50.5666 42.6694L50.3266 44.6694H47.5266V17.7094H50.8066V27.1094C52.5399 25.9094 54.6466 25.3094 57.1266 25.3094C59.8199 25.3094 61.9266 26.0828 63.4466 27.6294C64.9666 29.1494 65.7266 31.6161 65.7266 35.0294C65.7266 38.4694 64.9666 41.0028 63.4466 42.6294C61.9266 44.2561 59.8332 45.0694 57.1666 45.0694ZM56.3266 42.4294C58.5399 42.4294 60.1132 41.8161 61.0466 40.5894C61.9799 39.3628 62.4466 37.5094 62.4466 35.0294C62.4466 32.4428 61.9399 30.6161 60.9266 29.5494C59.9399 28.4828 58.3799 27.9494 56.2466 27.9494C55.0999 27.9494 54.0732 28.1228 53.1666 28.4694C52.2599 28.7894 51.4732 29.2428 50.8066 29.8294V40.1494C51.5266 40.9228 52.3532 41.4961 53.2866 41.8694C54.2199 42.2428 55.2332 42.4294 56.3266 42.4294ZM69.5344 44.6694V18.9094H77.0544V38.9094H88.6544V44.6694H69.5344ZM90.5809 23.1894V17.7494H98.7009V23.1894H90.5809ZM91.1809 44.6694V31.1894H88.4209L89.0609 25.7094H98.7009V44.6694H91.1809ZM102.308 44.6694V25.7094H109.348L109.548 27.1494C110.268 26.6694 111.214 26.2428 112.388 25.8694C113.588 25.4961 114.868 25.3094 116.228 25.3094C118.601 25.3094 120.334 25.8961 121.428 27.0694C122.521 28.2428 123.068 30.0561 123.068 32.5094V44.6694H115.548V33.2694C115.548 32.4161 115.361 31.8028 114.988 31.4294C114.614 31.0561 113.961 30.8694 113.028 30.8694C112.468 30.8694 111.881 31.0028 111.268 31.2694C110.681 31.5361 110.201 31.8561 109.828 32.2294V44.6694H102.308ZM126.448 44.6694V17.7094H133.968V31.0294L139.248 25.7094H147.768L140.208 33.7094L148.208 44.6694H140.208L135.528 37.6294L133.968 39.1894V44.6694H126.448Z" fill="#2B00C6"/>
<path d="M3.6 44.7894L3.79612 43.8089L3.78497 43.8066L3.77379 43.8046L3.6 44.7894ZM1.2 44.1494H0.2V44.8362L0.841021 45.0828L1.2 44.1494ZM1.2 41.3494L1.58462 40.4264L0.2 39.8494V41.3494H1.2ZM3.52 42.0294L3.31835 43.0089H3.31835L3.52 42.0294ZM10.12 41.1094L10.8633 41.7784H10.8633L10.12 41.1094ZM11.2 18.9094V17.9094H10.2V18.9094H11.2ZM14.48 18.9094H15.48V17.9094H14.48V18.9094ZM12.52 43.1094L11.8058 42.4095L11.8056 42.4097L12.52 43.1094ZM6.6 44.0694C5.59142 44.0694 4.65768 43.9812 3.79612 43.8089L3.40388 45.77C4.40898 45.971 5.47524 46.0694 6.6 46.0694V44.0694ZM3.77379 43.8046C2.91602 43.6533 2.18016 43.455 1.55898 43.2161L0.841021 45.0828C1.6065 45.3772 2.47065 45.6056 3.42621 45.7742L3.77379 43.8046ZM2.2 44.1494V41.3494H0.2V44.1494H2.2ZM0.815385 42.2725C1.53027 42.5704 2.36843 42.8133 3.31835 43.0089L3.72165 41.05C2.85823 40.8722 2.14973 40.6618 1.58462 40.4264L0.815385 42.2725ZM3.31835 43.0089C4.28794 43.2085 5.24885 43.3094 6.2 43.3094V41.3094C5.39115 41.3094 4.5654 41.2237 3.72165 41.05L3.31835 43.0089ZM6.2 43.3094C8.17497 43.3094 9.85117 42.903 10.8633 41.7784L9.37671 40.4405C8.94883 40.9159 8.0117 41.3094 6.2 41.3094V43.3094ZM10.8633 41.7784C11.8219 40.7132 12.2 39.1655 12.2 37.3494H10.2C10.2 38.9467 9.85807 39.9056 9.37671 40.4405L10.8633 41.7784ZM12.2 37.3494V18.9094H10.2V37.3494H12.2ZM11.2 19.9094H14.48V17.9094H11.2V19.9094ZM13.48 18.9094V37.5894H15.48V18.9094H13.48ZM13.48 37.5894C13.48 39.7451 12.8851 41.3082 11.8058 42.4095L13.2342 43.8094C14.7682 42.244 15.48 40.1271 15.48 37.5894H13.48ZM11.8056 42.4097C10.7854 43.4512 9.12126 44.0694 6.6 44.0694V46.0694C9.41207 46.0694 11.6946 45.381 13.2344 43.8092L11.8056 42.4097ZM53.4466 44.5094L53.0876 45.4428L53.1018 45.4483L53.1162 45.4533L53.4466 44.5094ZM50.5666 42.6694L51.2512 41.9406L49.8094 40.5861L49.5737 42.5503L50.5666 42.6694ZM50.3266 44.6694V45.6694H51.2137L51.3194 44.7886L50.3266 44.6694ZM47.5266 44.6694H46.5266V45.6694H47.5266V44.6694ZM47.5266 17.7094V16.7094H46.5266V17.7094H47.5266ZM50.8066 17.7094H51.8066V16.7094H50.8066V17.7094ZM50.8066 27.1094H49.8066V29.018L51.3758 27.9316L50.8066 27.1094ZM63.4466 27.6294L62.7333 28.3304L62.7395 28.3365L63.4466 27.6294ZM63.4466 42.6294L62.7159 41.9467L63.4466 42.6294ZM61.0466 40.5894L60.2507 39.9839L61.0466 40.5894ZM60.9266 29.5494L60.1924 30.2285L60.2016 30.2382L60.9266 29.5494ZM53.1666 28.4694L53.4994 29.4124L53.5116 29.4081L53.5237 29.4035L53.1666 28.4694ZM50.8066 29.8294L50.1459 29.0787L49.8066 29.3774V29.8294H50.8066ZM50.8066 40.1494H49.8066V40.5429L50.0747 40.8309L50.8066 40.1494ZM53.2866 41.8694L52.9152 42.7979L53.2866 41.8694ZM57.1666 44.0694C55.8387 44.0694 54.7146 43.8938 53.7769 43.5656L53.1162 45.4533C54.3119 45.8718 55.6678 46.0694 57.1666 46.0694V44.0694ZM53.8055 43.5761C52.8961 43.2263 52.0449 42.6861 51.2512 41.9406L49.8819 43.3983C50.8483 44.3061 51.917 44.9926 53.0876 45.4428L53.8055 43.5761ZM49.5737 42.5503L49.3337 44.5503L51.3194 44.7886L51.5594 42.7886L49.5737 42.5503ZM50.3266 43.6694H47.5266V45.6694H50.3266V43.6694ZM48.5266 44.6694V17.7094H46.5266V44.6694H48.5266ZM47.5266 18.7094H50.8066V16.7094H47.5266V18.7094ZM49.8066 17.7094V27.1094H51.8066V17.7094H49.8066ZM51.3758 27.9316C52.914 26.8667 54.8132 26.3094 57.1266 26.3094V24.3094C54.4799 24.3094 52.1658 24.9522 50.2374 26.2872L51.3758 27.9316ZM57.1266 26.3094C59.6206 26.3094 61.4447 27.0191 62.7333 28.3304L64.1598 26.9285C62.4084 25.1464 60.0192 24.3094 57.1266 24.3094V26.3094ZM62.7395 28.3365C63.9872 29.5842 64.7266 31.7308 64.7266 35.0294H66.7266C66.7266 31.5014 65.946 28.7146 64.1537 26.9223L62.7395 28.3365ZM64.7266 35.0294C64.7266 38.3495 63.9892 40.584 62.7159 41.9467L64.1772 43.3122C65.9439 41.4215 66.7266 38.5893 66.7266 35.0294H64.7266ZM62.7159 41.9467C61.422 43.3314 59.6156 44.0694 57.1666 44.0694V46.0694C60.0509 46.0694 62.4311 45.1808 64.1772 43.3122L62.7159 41.9467ZM56.3266 43.4294C58.709 43.4294 60.6474 42.7655 61.8424 41.195L60.2507 39.9839C59.579 40.8667 58.3708 41.4294 56.3266 41.4294V43.4294ZM61.8424 41.195C62.9672 39.7166 63.4466 37.6049 63.4466 35.0294H61.4466C61.4466 37.414 60.9926 39.0089 60.2507 39.9839L61.8424 41.195ZM63.4466 35.0294C63.4466 32.3645 62.9345 30.2112 61.6516 28.8607L60.2016 30.2382C60.9452 31.021 61.4466 32.521 61.4466 35.0294H63.4466ZM61.6607 28.8704C60.4108 27.5192 58.527 26.9494 56.2466 26.9494V28.9494C58.2328 28.9494 59.469 29.4464 60.1925 30.2285L61.6607 28.8704ZM56.2466 26.9494C54.9995 26.9494 53.8487 27.138 52.8094 27.5354L53.5237 29.4035C54.2977 29.1075 55.2003 28.9494 56.2466 28.9494V26.9494ZM52.8337 27.5264C51.8166 27.8854 50.9163 28.4008 50.1459 29.0787L51.4672 30.5801C52.0302 30.0847 52.7032 29.6934 53.4994 29.4124L52.8337 27.5264ZM49.8066 29.8294V40.1494H51.8066V29.8294H49.8066ZM50.0747 40.8309C50.8899 41.7065 51.8379 42.367 52.9152 42.7979L53.658 40.941C52.8685 40.6252 52.1632 40.1391 51.5385 39.468L50.0747 40.8309ZM52.9152 42.7979C53.9766 43.2225 55.1172 43.4294 56.3266 43.4294V41.4294C55.3492 41.4294 54.4632 41.2631 53.658 40.941L52.9152 42.7979ZM69.5344 44.6694H68.5344V45.6694H69.5344V44.6694ZM69.5344 18.9094V17.9094H68.5344V18.9094H69.5344ZM77.0544 18.9094H78.0544V17.9094H77.0544V18.9094ZM77.0544 38.9094H76.0544V39.9094H77.0544V38.9094ZM88.6544 38.9094H89.6544V37.9094H88.6544V38.9094ZM88.6544 44.6694V45.6694H89.6544V44.6694H88.6544ZM70.5344 44.6694V18.9094H68.5344V44.6694H70.5344ZM69.5344 19.9094H77.0544V17.9094H69.5344V19.9094ZM76.0544 18.9094V38.9094H78.0544V18.9094H76.0544ZM77.0544 39.9094H88.6544V37.9094H77.0544V39.9094ZM87.6544 38.9094V44.6694H89.6544V38.9094H87.6544ZM88.6544 43.6694H69.5344V45.6694H88.6544V43.6694ZM90.5809 23.1894H89.5809V24.1894H90.5809V23.1894ZM90.5809 17.7494V16.7494H89.5809V17.7494H90.5809ZM98.7009 17.7494H99.7009V16.7494H98.7009V17.7494ZM98.7009 23.1894V24.1894H99.7009V23.1894H98.7009ZM91.1809 44.6694H90.1809V45.6694H91.1809V44.6694ZM91.1809 31.1894H92.1809V30.1894H91.1809V31.1894ZM88.4209 31.1894L87.4277 31.0734L87.2974 32.1894H88.4209V31.1894ZM89.0609 25.7094V24.7094H88.1709L88.0677 25.5934L89.0609 25.7094ZM98.7009 25.7094H99.7009V24.7094H98.7009V25.7094ZM98.7009 44.6694V45.6694H99.7009V44.6694H98.7009ZM91.5809 23.1894V17.7494H89.5809V23.1894H91.5809ZM90.5809 18.7494H98.7009V16.7494H90.5809V18.7494ZM97.7009 17.7494V23.1894H99.7009V17.7494H97.7009ZM98.7009 22.1894H90.5809V24.1894H98.7009V22.1894ZM92.1809 44.6694V31.1894H90.1809V44.6694H92.1809ZM91.1809 30.1894H88.4209V32.1894H91.1809V30.1894ZM89.4142 31.3054L90.0542 25.8254L88.0677 25.5934L87.4277 31.0734L89.4142 31.3054ZM89.0609 26.7094H98.7009V24.7094H89.0609V26.7094ZM97.7009 25.7094V44.6694H99.7009V25.7094H97.7009ZM98.7009 43.6694H91.1809V45.6694H98.7009V43.6694ZM102.308 44.6694H101.308V45.6694H102.308V44.6694ZM102.308 25.7094V24.7094H101.308V25.7094H102.308ZM109.348 25.7094L110.338 25.5719L110.219 24.7094H109.348V25.7094ZM109.548 27.1494L108.557 27.287L108.777 28.8655L110.103 27.9815L109.548 27.1494ZM112.388 25.8694L112.091 24.9146L112.085 24.9165L112.388 25.8694ZM121.428 27.0694L120.696 27.7512L121.428 27.0694ZM123.068 44.6694V45.6694H124.068V44.6694H123.068ZM115.548 44.6694H114.548V45.6694H115.548V44.6694ZM114.988 31.4294L115.695 30.7223L114.988 31.4294ZM111.268 31.2694L110.869 30.3524L110.862 30.3557L110.854 30.3591L111.268 31.2694ZM109.828 32.2294L109.121 31.5223L108.828 31.8152V32.2294H109.828ZM109.828 44.6694V45.6694H110.828V44.6694H109.828ZM103.308 44.6694V25.7094H101.308V44.6694H103.308ZM102.308 26.7094H109.348V24.7094H102.308V26.7094ZM108.357 25.847L108.557 27.287L110.538 27.0119L110.338 25.5719L108.357 25.847ZM110.103 27.9815C110.72 27.5701 111.572 27.1783 112.691 26.8224L112.085 24.9165C110.857 25.3073 109.816 25.7688 108.993 26.3174L110.103 27.9815ZM112.685 26.8243C113.781 26.4832 114.96 26.3094 116.228 26.3094V24.3094C114.775 24.3094 113.395 24.509 112.091 24.9146L112.685 26.8243ZM116.228 26.3094C118.457 26.3094 119.867 26.8614 120.696 27.7512L122.159 26.3877C120.802 24.9308 118.745 24.3094 116.228 24.3094V26.3094ZM120.696 27.7512C121.545 28.6623 122.068 30.1791 122.068 32.5094H124.068C124.068 29.9331 123.497 27.8233 122.159 26.3877L120.696 27.7512ZM122.068 32.5094V44.6694H124.068V32.5094H122.068ZM123.068 43.6694H115.548V45.6694H123.068V43.6694ZM116.548 44.6694V33.2694H114.548V44.6694H116.548ZM116.548 33.2694C116.548 32.3075 116.343 31.3706 115.695 30.7223L114.281 32.1365C114.379 32.2349 114.548 32.5247 114.548 33.2694H116.548ZM115.695 30.7223C115.034 30.0611 114.039 29.8694 113.028 29.8694V31.8694C113.883 31.8694 114.195 32.0511 114.281 32.1365L115.695 30.7223ZM113.028 29.8694C112.307 29.8694 111.584 30.0414 110.869 30.3524L111.667 32.1865C112.178 31.9641 112.629 31.8694 113.028 31.8694V29.8694ZM110.854 30.3591C110.182 30.6648 109.595 31.0478 109.121 31.5223L110.535 32.9365C110.807 32.6644 111.181 32.4074 111.682 32.1798L110.854 30.3591ZM108.828 32.2294V44.6694H110.828V32.2294H108.828ZM109.828 43.6694H102.308V45.6694H109.828V43.6694ZM126.448 44.6694H125.448V45.6694H126.448V44.6694ZM126.448 17.7094V16.7094H125.448V17.7094H126.448ZM133.968 17.7094H134.968V16.7094H133.968V17.7094ZM133.968 31.0294H132.968V33.4566L134.678 31.7339L133.968 31.0294ZM139.248 25.7094V24.7094H138.832L138.539 25.005L139.248 25.7094ZM147.768 25.7094L148.495 26.3963L150.089 24.7094H147.768V25.7094ZM140.208 33.7094L139.482 33.0226L138.91 33.6272L139.401 34.299L140.208 33.7094ZM148.208 44.6694V45.6694H150.176L149.016 44.0799L148.208 44.6694ZM140.208 44.6694L139.376 45.223L139.672 45.6694H140.208V44.6694ZM135.528 37.6294L136.361 37.0758L135.685 36.0586L134.821 36.9223L135.528 37.6294ZM133.968 39.1894L133.261 38.4823L132.968 38.7752V39.1894H133.968ZM133.968 44.6694V45.6694H134.968V44.6694H133.968ZM127.448 44.6694V17.7094H125.448V44.6694H127.448ZM126.448 18.7094H133.968V16.7094H126.448V18.7094ZM132.968 17.7094V31.0294H134.968V17.7094H132.968ZM134.678 31.7339L139.958 26.4139L138.539 25.005L133.259 30.325L134.678 31.7339ZM139.248 26.7094H147.768V24.7094H139.248V26.7094ZM147.042 25.0226L139.482 33.0226L140.935 34.3963L148.495 26.3963L147.042 25.0226ZM139.401 34.299L147.401 45.259L149.016 44.0799L141.016 33.1199L139.401 34.299ZM148.208 43.6694H140.208V45.6694H148.208V43.6694ZM141.041 44.1158L136.361 37.0758L134.696 38.183L139.376 45.223L141.041 44.1158ZM134.821 36.9223L133.261 38.4823L134.676 39.8965L136.236 38.3365L134.821 36.9223ZM132.968 39.1894V44.6694H134.968V39.1894H132.968ZM133.968 43.6694H126.448V45.6694H133.968V43.6694Z" fill="#2B00C6" mask="url(#path-4-outside-1_424_414)"/>
</svg>
