<svg width="484" height="327" viewBox="0 0 484 327" fill="none" xmlns="http://www.w3.org/2000/svg">
<path d="M77.1035 327C63.1035 327 49.7702 326 37.1035 324C24.4369 322.333 12.2702 319.5 0.603516 315.5V237.5C8.60352 240.833 17.6035 243.333 27.6035 245C37.6035 246.667 47.6035 247.5 57.6035 247.5C75.6035 247.5 88.4369 243.833 96.1035 236.5C103.77 229.167 107.604 217 107.604 200V-2.67029e-05H201.604V215C201.604 250 190.937 277.5 169.604 297.5C148.604 317.167 117.77 327 77.1035 327ZM244.236 322V-2.67029e-05H338.236V250H483.236V322H244.236Z" fill="white"/>
</svg>
