<svg width="150" height="60" viewBox="0 0 150 60" fill="none" xmlns="http://www.w3.org/2000/svg">
<path d="M30.8344 45C25.0043 45 20.2781 40.5228 20.2781 35C20.2781 29.4772 25.0043 25 30.8344 25C36.6644 25 41.3906 29.4772 41.3906 35C41.3906 40.5228 36.6644 45 30.8344 45Z" stroke="#160E37" stroke-width="3.3"/>
<path d="M30.8342 30.0001C32.234 30.0001 33.5765 30.5268 34.5664 31.4645C35.5562 32.4022 36.1123 33.674 36.1123 35.0001M14.9998 50.0001L20.2779 45.0001" stroke="#160E37" stroke-width="3.3" stroke-linecap="round"/>
<path d="M6.6 44.4C5.53333 44.4 4.53333 44.3067 3.6 44.12C2.69333 43.96 1.89333 43.7467 1.2 43.48V40.68C1.84 40.9467 2.61333 41.1733 3.52 41.36C4.42667 41.5467 5.32 41.64 6.2 41.64C8.09333 41.64 9.4 41.24 10.12 40.44C10.84 39.64 11.2 38.3867 11.2 36.68V18.24H14.48V36.92C14.48 39.2667 13.8267 41.1067 12.52 42.44C11.24 43.7467 9.26667 44.4 6.6 44.4ZM57.1666 44.4C55.7532 44.4 54.5132 44.2133 53.4466 43.84C52.4066 43.44 51.4466 42.8267 50.5666 42L50.3266 44H47.5266V17.04H50.8066V26.44C52.5399 25.24 54.6466 24.64 57.1266 24.64C59.8199 24.64 61.9266 25.4133 63.4466 26.96C64.9666 28.48 65.7266 30.9467 65.7266 34.36C65.7266 37.8 64.9666 40.3333 63.4466 41.96C61.9266 43.5867 59.8332 44.4 57.1666 44.4ZM56.3266 41.76C58.5399 41.76 60.1132 41.1467 61.0466 39.92C61.9799 38.6933 62.4466 36.84 62.4466 34.36C62.4466 31.7733 61.9399 29.9467 60.9266 28.88C59.9399 27.8133 58.3799 27.28 56.2466 27.28C55.0999 27.28 54.0732 27.4533 53.1666 27.8C52.2599 28.12 51.4732 28.5733 50.8066 29.16V39.48C51.5266 40.2533 52.3532 40.8267 53.2866 41.2C54.2199 41.5733 55.2332 41.76 56.3266 41.76ZM69.5344 44V18.24H77.0544V38.24H88.6544V44H69.5344ZM90.5809 22.52V17.08H98.7009V22.52H90.5809ZM91.1809 44V30.52H88.4209L89.0609 25.04H98.7009V44H91.1809ZM102.308 44V25.04H109.348L109.548 26.48C110.268 26 111.214 25.5733 112.388 25.2C113.588 24.8267 114.868 24.64 116.228 24.64C118.601 24.64 120.334 25.2267 121.428 26.4C122.521 27.5733 123.068 29.3867 123.068 31.84V44H115.548V32.6C115.548 31.7467 115.361 31.1333 114.988 30.76C114.614 30.3867 113.961 30.2 113.028 30.2C112.468 30.2 111.881 30.3333 111.268 30.6C110.681 30.8667 110.201 31.1867 109.828 31.56V44H102.308ZM126.448 44V17.04H133.968V30.36L139.248 25.04H147.768L140.208 33.04L148.208 44H140.208L135.528 36.96L133.968 38.52V44H126.448Z" fill="#160E37"/>
<path d="M3.6 44.12L3.79612 43.1394L3.78497 43.1372L3.77379 43.1352L3.6 44.12ZM1.2 43.48H0.2V44.1668L0.841021 44.4133L1.2 43.48ZM1.2 40.68L1.58462 39.7569L0.2 39.18V40.68H1.2ZM3.52 41.36L3.31835 42.3395L3.31835 42.3395L3.52 41.36ZM10.12 40.44L10.8633 41.109L10.8633 41.109L10.12 40.44ZM11.2 18.24V17.24H10.2V18.24H11.2ZM14.48 18.24H15.48V17.24H14.48V18.24ZM12.52 42.44L11.8058 41.7401L11.8056 41.7402L12.52 42.44ZM6.6 43.4C5.59142 43.4 4.65768 43.3117 3.79612 43.1394L3.40388 45.1006C4.40898 45.3016 5.47524 45.4 6.6 45.4V43.4ZM3.77379 43.1352C2.91602 42.9838 2.18016 42.7856 1.55898 42.5467L0.841021 44.4133C1.6065 44.7078 2.47065 44.9362 3.42621 45.1048L3.77379 43.1352ZM2.2 43.48V40.68H0.2V43.48H2.2ZM0.815385 41.6031C1.53027 41.9009 2.36843 42.1439 3.31835 42.3395L3.72165 40.3805C2.85823 40.2028 2.14973 39.9924 1.58462 39.7569L0.815385 41.6031ZM3.31835 42.3395C4.28794 42.5391 5.24885 42.64 6.2 42.64V40.64C5.39115 40.64 4.5654 40.5543 3.72165 40.3805L3.31835 42.3395ZM6.2 42.64C8.17497 42.64 9.85117 42.2335 10.8633 41.109L9.37671 39.771C8.94883 40.2465 8.0117 40.64 6.2 40.64V42.64ZM10.8633 41.109C11.8219 40.0438 12.2 38.4961 12.2 36.68H10.2C10.2 38.2773 9.85807 39.2362 9.37671 39.771L10.8633 41.109ZM12.2 36.68V18.24H10.2V36.68H12.2ZM11.2 19.24H14.48V17.24H11.2V19.24ZM13.48 18.24V36.92H15.48V18.24H13.48ZM13.48 36.92C13.48 39.0756 12.8851 40.6387 11.8058 41.7401L13.2342 43.1399C14.7682 41.5746 15.48 39.4577 15.48 36.92H13.48ZM11.8056 41.7402C10.7854 42.7817 9.12126 43.4 6.6 43.4V45.4C9.41207 45.4 11.6946 44.7116 13.2344 43.1398L11.8056 41.7402ZM53.4466 43.84L53.0876 44.7733L53.1018 44.7788L53.1162 44.7839L53.4466 43.84ZM50.5666 42L51.2512 41.2712L49.8094 39.9167L49.5737 41.8809L50.5666 42ZM50.3266 44V45H51.2137L51.3194 44.1191L50.3266 44ZM47.5266 44H46.5266V45H47.5266V44ZM47.5266 17.04V16.04H46.5266V17.04H47.5266ZM50.8066 17.04H51.8066V16.04H50.8066V17.04ZM50.8066 26.44H49.8066V28.3486L51.3758 27.2622L50.8066 26.44ZM63.4466 26.96L62.7333 27.661L62.7395 27.6671L63.4466 26.96ZM63.4466 41.96L62.7159 41.2773L62.7159 41.2773L63.4466 41.96ZM61.0466 39.92L60.2507 39.3145L60.2507 39.3145L61.0466 39.92ZM60.9266 28.88L60.1924 29.5591L60.2016 29.5687L60.9266 28.88ZM53.1666 27.8L53.4994 28.743L53.5116 28.7387L53.5237 28.7341L53.1666 27.8ZM50.8066 29.16L50.1459 28.4093L49.8066 28.7079V29.16H50.8066ZM50.8066 39.48H49.8066V39.8735L50.0747 40.1614L50.8066 39.48ZM53.2866 41.2L52.9152 42.1285L52.9152 42.1285L53.2866 41.2ZM57.1666 43.4C55.8387 43.4 54.7146 43.2243 53.7769 42.8961L53.1162 44.7839C54.3119 45.2023 55.6678 45.4 57.1666 45.4V43.4ZM53.8055 42.9067C52.8961 42.5569 52.0449 42.0167 51.2512 41.2712L49.8819 42.7288C50.8483 43.6367 51.917 44.3231 53.0876 44.7733L53.8055 42.9067ZM49.5737 41.8809L49.3337 43.8809L51.3194 44.1191L51.5594 42.1191L49.5737 41.8809ZM50.3266 43H47.5266V45H50.3266V43ZM48.5266 44V17.04H46.5266V44H48.5266ZM47.5266 18.04H50.8066V16.04H47.5266V18.04ZM49.8066 17.04V26.44H51.8066V17.04H49.8066ZM51.3758 27.2622C52.914 26.1973 54.8132 25.64 57.1266 25.64V23.64C54.4799 23.64 52.1658 24.2827 50.2374 25.6178L51.3758 27.2622ZM57.1266 25.64C59.6206 25.64 61.4447 26.3497 62.7333 27.6609L64.1598 26.2591C62.4084 24.477 60.0192 23.64 57.1266 23.64V25.64ZM62.7395 27.6671C63.9872 28.9148 64.7266 31.0614 64.7266 34.36H66.7266C66.7266 30.832 65.946 28.0452 64.1537 26.2529L62.7395 27.6671ZM64.7266 34.36C64.7266 37.6801 63.9892 39.9146 62.7159 41.2773L64.1772 42.6427C65.9439 40.7521 66.7266 37.9199 66.7266 34.36H64.7266ZM62.7159 41.2773C61.422 42.6619 59.6156 43.4 57.1666 43.4V45.4C60.0509 45.4 62.4311 44.5114 64.1772 42.6427L62.7159 41.2773ZM56.3266 42.76C58.709 42.76 60.6474 42.096 61.8424 40.5255L60.2507 39.3145C59.579 40.1973 58.3708 40.76 56.3266 40.76V42.76ZM61.8424 40.5255C62.9672 39.0472 63.4466 36.9355 63.4466 34.36H61.4466C61.4466 36.7445 60.9926 38.3395 60.2507 39.3145L61.8424 40.5255ZM63.4466 34.36C63.4466 31.6951 62.9345 29.5418 61.6516 28.1912L60.2016 29.5687C60.9452 30.3516 61.4466 31.8516 61.4466 34.36H63.4466ZM61.6607 28.201C60.4108 26.8497 58.527 26.28 56.2466 26.28V28.28C58.2328 28.28 59.469 28.7769 60.1925 29.559L61.6607 28.201ZM56.2466 26.28C54.9995 26.28 53.8487 26.4686 52.8094 26.8659L53.5237 28.7341C54.2977 28.4381 55.2003 28.28 56.2466 28.28V26.28ZM52.8337 26.857C51.8166 27.216 50.9163 27.7314 50.1459 28.4093L51.4672 29.9107C52.0302 29.4153 52.7032 29.024 53.4994 28.743L52.8337 26.857ZM49.8066 29.16V39.48H51.8066V29.16H49.8066ZM50.0747 40.1614C50.8899 41.037 51.8379 41.6976 52.9152 42.1285L53.658 40.2715C52.8685 39.9558 52.1632 39.4696 51.5385 38.7986L50.0747 40.1614ZM52.9152 42.1285C53.9766 42.553 55.1172 42.76 56.3266 42.76V40.76C55.3492 40.76 54.4632 40.5936 53.658 40.2715L52.9152 42.1285ZM69.5344 44H68.5344V45H69.5344V44ZM69.5344 18.24V17.24H68.5344V18.24H69.5344ZM77.0544 18.24H78.0544V17.24H77.0544V18.24ZM77.0544 38.24H76.0544V39.24H77.0544V38.24ZM88.6544 38.24H89.6544V37.24H88.6544V38.24ZM88.6544 44V45H89.6544V44H88.6544ZM70.5344 44V18.24H68.5344V44H70.5344ZM69.5344 19.24H77.0544V17.24H69.5344V19.24ZM76.0544 18.24V38.24H78.0544V18.24H76.0544ZM77.0544 39.24H88.6544V37.24H77.0544V39.24ZM87.6544 38.24V44H89.6544V38.24H87.6544ZM88.6544 43H69.5344V45H88.6544V43ZM90.5809 22.52H89.5809V23.52H90.5809V22.52ZM90.5809 17.08V16.08H89.5809V17.08H90.5809ZM98.7009 17.08H99.7009V16.08H98.7009V17.08ZM98.7009 22.52V23.52H99.7009V22.52H98.7009ZM91.1809 44H90.1809V45H91.1809V44ZM91.1809 30.52H92.1809V29.52H91.1809V30.52ZM88.4209 30.52L87.4277 30.404L87.2974 31.52H88.4209V30.52ZM89.0609 25.04V24.04H88.1709L88.0677 24.924L89.0609 25.04ZM98.7009 25.04H99.7009V24.04H98.7009V25.04ZM98.7009 44V45H99.7009V44H98.7009ZM91.5809 22.52V17.08H89.5809V22.52H91.5809ZM90.5809 18.08H98.7009V16.08H90.5809V18.08ZM97.7009 17.08V22.52H99.7009V17.08H97.7009ZM98.7009 21.52H90.5809V23.52H98.7009V21.52ZM92.1809 44V30.52H90.1809V44H92.1809ZM91.1809 29.52H88.4209V31.52H91.1809V29.52ZM89.4142 30.636L90.0542 25.156L88.0677 24.924L87.4277 30.404L89.4142 30.636ZM89.0609 26.04H98.7009V24.04H89.0609V26.04ZM97.7009 25.04V44H99.7009V25.04H97.7009ZM98.7009 43H91.1809V45H98.7009V43ZM102.308 44H101.308V45H102.308V44ZM102.308 25.04V24.04H101.308V25.04H102.308ZM109.348 25.04L110.338 24.9024L110.219 24.04H109.348V25.04ZM109.548 26.48L108.557 26.6176L108.777 28.196L110.103 27.312L109.548 26.48ZM112.388 25.2L112.091 24.2451L112.085 24.2471L112.388 25.2ZM121.428 26.4L120.696 27.0817L120.696 27.0817L121.428 26.4ZM123.068 44V45H124.068V44H123.068ZM115.548 44H114.548V45H115.548V44ZM114.988 30.76L115.695 30.0529L115.695 30.0529L114.988 30.76ZM111.268 30.6L110.869 29.6829L110.862 29.6862L110.854 29.6896L111.268 30.6ZM109.828 31.56L109.121 30.8529L108.828 31.1458V31.56H109.828ZM109.828 44V45H110.828V44H109.828ZM103.308 44V25.04H101.308V44H103.308ZM102.308 26.04H109.348V24.04H102.308V26.04ZM108.357 25.1776L108.557 26.6176L110.538 26.3424L110.338 24.9024L108.357 25.1776ZM110.103 27.312C110.72 26.9007 111.572 26.5088 112.691 26.1529L112.085 24.2471C110.857 24.6378 109.816 25.0993 108.993 25.6479L110.103 27.312ZM112.685 26.1549C113.781 25.8138 114.96 25.64 116.228 25.64V23.64C114.775 23.64 113.395 23.8395 112.091 24.2451L112.685 26.1549ZM116.228 25.64C118.457 25.64 119.867 26.192 120.696 27.0817L122.159 25.7183C120.802 24.2613 118.745 23.64 116.228 23.64V25.64ZM120.696 27.0817C121.545 27.9928 122.068 29.5096 122.068 31.84H124.068C124.068 29.2637 123.497 27.1538 122.159 25.7183L120.696 27.0817ZM122.068 31.84V44H124.068V31.84H122.068ZM123.068 43H115.548V45H123.068V43ZM116.548 44V32.6H114.548V44H116.548ZM116.548 32.6C116.548 31.6381 116.343 30.7012 115.695 30.0529L114.281 31.4671C114.379 31.5655 114.548 31.8553 114.548 32.6H116.548ZM115.695 30.0529C115.034 29.3916 114.039 29.2 113.028 29.2V31.2C113.883 31.2 114.195 31.3817 114.281 31.4671L115.695 30.0529ZM113.028 29.2C112.307 29.2 111.584 29.372 110.869 29.6829L111.667 31.5171C112.178 31.2947 112.629 31.2 113.028 31.2V29.2ZM110.854 29.6896C110.181 29.9953 109.595 30.3784 109.121 30.8529L110.535 32.2671C110.807 31.995 111.181 31.738 111.682 31.5104L110.854 29.6896ZM108.828 31.56V44H110.828V31.56H108.828ZM109.828 43H102.308V45H109.828V43ZM126.448 44H125.448V45H126.448V44ZM126.448 17.04V16.04H125.448V17.04H126.448ZM133.968 17.04H134.968V16.04H133.968V17.04ZM133.968 30.36H132.968V32.7872L134.678 31.0644L133.968 30.36ZM139.248 25.04V24.04H138.832L138.539 24.3356L139.248 25.04ZM147.768 25.04L148.495 25.7268L150.089 24.04H147.768V25.04ZM140.208 33.04L139.482 32.3532L138.91 32.9577L139.401 33.6296L140.208 33.04ZM148.208 44V45H150.176L149.016 43.4104L148.208 44ZM140.208 44L139.376 44.5536L139.672 45H140.208V44ZM135.528 36.96L136.361 36.4064L135.685 35.3892L134.821 36.2529L135.528 36.96ZM133.968 38.52L133.261 37.8129L132.968 38.1058V38.52H133.968ZM133.968 44V45H134.968V44H133.968ZM127.448 44V17.04H125.448V44H127.448ZM126.448 18.04H133.968V16.04H126.448V18.04ZM132.968 17.04V30.36H134.968V17.04H132.968ZM134.678 31.0644L139.958 25.7444L138.539 24.3356L133.259 29.6556L134.678 31.0644ZM139.248 26.04H147.768V24.04H139.248V26.04ZM147.042 24.3532L139.482 32.3532L140.935 33.7268L148.495 25.7268L147.042 24.3532ZM139.401 33.6296L147.401 44.5896L149.016 43.4104L141.016 32.4504L139.401 33.6296ZM148.208 43H140.208V45H148.208V43ZM141.041 43.4464L136.361 36.4064L134.696 37.5136L139.376 44.5536L141.041 43.4464ZM134.821 36.2529L133.261 37.8129L134.676 39.2271L136.236 37.6671L134.821 36.2529ZM132.968 38.52V44H134.968V38.52H132.968ZM133.968 43H126.448V45H133.968V43Z" fill="#160E37"/>
</svg>
