<svg width="150" height="60" viewBox="0 0 150 60" fill="none" xmlns="http://www.w3.org/2000/svg">
<path d="M31 44C25.4772 44 21 39.5229 21 34C21 28.4772 25.4772 24 31 24C36.5228 24 41 28.4772 41 34C41 39.5229 36.5228 44 31 44Z" stroke="white" stroke-width="2.35"/>
<path d="M31 29C32.3261 29 33.5979 29.5268 34.5355 30.4645C35.4732 31.4021 36 32.6739 36 34M16 49L21 44" stroke="white" stroke-width="2.35" stroke-linecap="round"/>
<path d="M6.6 44.4C5.53333 44.4 4.53333 44.3067 3.6 44.12C2.69333 43.96 1.89333 43.7467 1.2 43.48V40.68C1.84 40.9467 2.61333 41.1733 3.52 41.36C4.42667 41.5467 5.32 41.64 6.2 41.64C8.09333 41.64 9.4 41.24 10.12 40.44C10.84 39.64 11.2 38.3867 11.2 36.68V18.24H14.48V36.92C14.48 39.2667 13.8267 41.1067 12.52 42.44C11.24 43.7467 9.26667 44.4 6.6 44.4ZM57.1666 44.4C55.7532 44.4 54.5132 44.2133 53.4466 43.84C52.4066 43.44 51.4466 42.8267 50.5666 42L50.3266 44H47.5266V17.04H50.8066V26.44C52.5399 25.24 54.6466 24.64 57.1266 24.64C59.8199 24.64 61.9266 25.4133 63.4466 26.96C64.9666 28.48 65.7266 30.9467 65.7266 34.36C65.7266 37.8 64.9666 40.3333 63.4466 41.96C61.9266 43.5867 59.8332 44.4 57.1666 44.4ZM56.3266 41.76C58.5399 41.76 60.1132 41.1467 61.0466 39.92C61.9799 38.6933 62.4466 36.84 62.4466 34.36C62.4466 31.7733 61.9399 29.9467 60.9266 28.88C59.9399 27.8133 58.3799 27.28 56.2466 27.28C55.0999 27.28 54.0732 27.4533 53.1666 27.8C52.2599 28.12 51.4732 28.5733 50.8066 29.16V39.48C51.5266 40.2533 52.3532 40.8267 53.2866 41.2C54.2199 41.5733 55.2332 41.76 56.3266 41.76ZM69.5344 44V18.24H77.0544V38.24H88.6544V44H69.5344ZM90.5809 22.52V17.08H98.7009V22.52H90.5809ZM91.1809 44V30.52H88.4209L89.0609 25.04H98.7009V44H91.1809ZM102.308 44V25.04H109.348L109.548 26.48C110.268 26 111.214 25.5733 112.388 25.2C113.588 24.8267 114.868 24.64 116.228 24.64C118.601 24.64 120.334 25.2267 121.428 26.4C122.521 27.5733 123.068 29.3867 123.068 31.84V44H115.548V32.6C115.548 31.7467 115.361 31.1333 114.988 30.76C114.614 30.3867 113.961 30.2 113.028 30.2C112.468 30.2 111.881 30.3333 111.268 30.6C110.681 30.8667 110.201 31.1867 109.828 31.56V44H102.308ZM126.448 44V17.04H133.968V30.36L139.248 25.04H147.768L140.208 33.04L148.208 44H140.208L135.528 36.96L133.968 38.52V44H126.448Z" fill="white"/>
</svg>
