<svg width="60" height="150" viewBox="0 0 60 150" fill="none" xmlns="http://www.w3.org/2000/svg">
<path d="M44 119C44 124.523 39.5229 129 34 129C28.4772 129 24 124.523 24 119C24 113.477 28.4772 109 34 109C39.5229 109 44 113.477 44 119Z" stroke="white" stroke-width="2.35"/>
<path d="M29 119C29 117.674 29.5268 116.402 30.4645 115.464C31.4021 114.527 32.6739 114 34 114M49 134L44 129" stroke="white" stroke-width="2.35" stroke-linecap="round"/>
<path d="M44.4 143.4C44.4 144.467 44.3067 145.467 44.12 146.4C43.96 147.307 43.7467 148.107 43.48 148.8H40.68C40.9467 148.16 41.1733 147.387 41.36 146.48C41.5467 145.573 41.64 144.68 41.64 143.8C41.64 141.907 41.24 140.6 40.44 139.88C39.64 139.16 38.3867 138.8 36.68 138.8H18.24V135.52H36.92C39.2667 135.52 41.1067 136.173 42.44 137.48C43.7467 138.76 44.4 140.733 44.4 143.4ZM44.4 92.8334C44.4 94.2468 44.2133 95.4868 43.84 96.5534C43.44 97.5934 42.8267 98.5534 42 99.4334L44 99.6734V102.473H17.04V99.1934H26.44C25.24 97.4601 24.64 95.3534 24.64 92.8734C24.64 90.1801 25.4133 88.0734 26.96 86.5534C28.48 85.0334 30.9467 84.2734 34.36 84.2734C37.8 84.2734 40.3333 85.0334 41.96 86.5534C43.5867 88.0734 44.4 90.1668 44.4 92.8334ZM41.76 93.6734C41.76 91.4601 41.1467 89.8868 39.92 88.9534C38.6933 88.0201 36.84 87.5534 34.36 87.5534C31.7733 87.5534 29.9467 88.0601 28.88 89.0734C27.8133 90.0601 27.28 91.6201 27.28 93.7534C27.28 94.9001 27.4533 95.9268 27.8 96.8334C28.12 97.7401 28.5733 98.5268 29.16 99.1934H39.48C40.2533 98.4734 40.8267 97.6468 41.2 96.7134C41.5733 95.7801 41.76 94.7668 41.76 93.6734ZM44 80.4656H18.24V72.9456H38.24V61.3456H44V80.4656ZM22.52 59.4191H17.08V51.2991H22.52V59.4191ZM44 58.8191H30.52V61.5791L25.04 60.9391V51.2991H44V58.8191ZM44 47.6922H25.04V40.6522L26.48 40.4522C26 39.7322 25.5733 38.7855 25.2 37.6122C24.8267 36.4122 24.64 35.1322 24.64 33.7722C24.64 31.3989 25.2267 29.6655 26.4 28.5722C27.5733 27.4789 29.3867 26.9322 31.84 26.9322H44V34.4522H32.6C31.7467 34.4522 31.1333 34.6389 30.76 35.0122C30.3867 35.3855 30.2 36.0389 30.2 36.9722C30.2 37.5322 30.3333 38.1189 30.6 38.7322C30.8667 39.3189 31.1867 39.7989 31.56 40.1722H44V47.6922ZM44 23.5516H17.04V16.0316H30.36L25.04 10.7516L25.04 2.23156L33.04 9.79156L44 1.79156V9.79156L36.96 14.4716L38.52 16.0316H44V23.5516Z" fill="white"/>
</svg>
